<svg xmlns="http://www.w3.org/2000/svg" viewBox="0 0 100 100" width="80"><path fill="#03adad" d="M88 2H12C6.477 2 2 6.477 2 12v76c0 5.523 4.477 10 10 10h76c5.523 0 10-4.477 10-10V12c0-5.523-4.477-10-10-10z" class="color03ADAD svgShape"></path><path fill="#04847d" d="M67.501 25.999h-35c-.55 0-1 .45-1 1v17l2 2h-2v.85c0 2.64 1 4.99 2.54 6.48l11.15 11.15v3.52c0 2.1.87 3.95 2.18 5.02L72.352 98H88c5.523 0 10-4.477 10-10V56.088l-29.819-29.82a.987.987 0 0 0-.68-.27z" class="color04847D svgShape"></path><path fill="#ffffff" d="M67.5 26h-35c-.55 0-1 .45-1 1v17.002h37V27c0-.55-.45-1-1-1zM31.5 46.85c0 4.5 2.89 8.15 6.44 8.15h2.81c2.45 0 4.44 2.76 4.44 6.15V68c0 3.31 2.16 6 4.81 6 2.65 0 4.8-2.69 4.8-6v-6.85c0-3.39 1.99-6.15 4.44-6.15h2.82c3.55 0 6.44-3.65 6.44-8.15v-.848h-37v.848zm17.502 18.152a1 1 0 0 1 2 0v3a1 1 0 0 1-2 0v-3z" class="colorFFF svgShape"></path></svg>