<svg xmlns="http://www.w3.org/2000/svg" version="1.1" xmlns:xlink="http://www.w3.org/1999/xlink" xmlns:svgjs="http://svgjs.com/svgjs" width="90" x="0" y="0" viewBox="0 0 140 140" style="enable-background:new 0 0 512 512" xml:space="preserve" class=""><g><circle cx="70" cy="70" fill="#4abaa4" r="64" data-original="#4abaa4" class=""></circle><path d="m133.9699707 68.8500977c.0100098.3798828.0300293.7597656.0300293 1.1499023 0 35.3500977-28.6500244 64-64 64-1.0900879 0-2.1699219-.0302734-3.2399902-.0800781l-35.1999512-35.25c-.7600098-.6899414-1.2399902-1.6796875-1.2399902-2.7797852v-60.8203125c0-2.0795898 1.6899414-3.7700195 3.7700195-3.7700195h60.8198242c.920166 0 1.75.340332 2.4001465.8901367h.0100098c.1699219.1499023.3199463.300293.4699707.4702148z" opacity=".1" fill="#000000" data-original="#000000"></path><path d="m98.675499 35.0731888c0-2.0814896-1.6872864-3.7687149-3.7687149-3.7687149h-60.8198739c-2.0814285 0-3.7687149 1.6872253-3.7687149 3.7687149v11.6470413h68.3573037z" fill="#e6e7e8" data-original="#e6e7e8" class=""></path><path d="m78.6856003 78.9448318h19.9899216v-33.224659h-68.3573266v50.1729012c0 2.0812836 1.6873093 3.7687988 3.7687302 3.7687988h44.5986748z" fill="#344e5c" data-original="#344e5c" class=""></path><circle cx="36.916" cy="39.012" fill="#ffd25a" r="2.829" data-original="#ffd25a"></circle><circle cx="46.11" cy="39.012" fill="#db584d" r="2.829" data-original="#db584d"></circle><circle cx="55.305" cy="39.012" fill="#509fd7" r="2.829" data-original="#509fd7"></circle><path d="m35.576378 52.170254h4.914386v1.798488h-4.914386z" fill="#467080" data-original="#467080"></path><path d="m41.354038 52.170223h10.12485v1.798488h-10.12485z" fill="#db584d" data-original="#db584d"></path><path d="m40.349636 57.517662h7.678614v1.798488h-7.678614z" fill="#467080" data-original="#467080"></path><path d="m35.576378 57.517662h3.75096v1.798488h-3.75096z" fill="#d6b251" data-original="#d6b251"></path><path d="m49.055138 57.517632h2.423748v1.798488h-2.423748z" fill="#509fd7" data-original="#509fd7"></path><path d="m35.576378 62.86507h7.807119v1.798488h-7.807119z" fill="#509fd7" data-original="#509fd7"></path><path d="m44.188942 62.865044h7.289945v1.798488h-7.289945z" fill="#d6b251" data-original="#d6b251"></path><path d="m52.533684 52.170254h3.332192v1.798488h-3.332192z" fill="#d6b251" data-original="#d6b251"></path><path d="m56.729149 52.170223h11.707045v1.798488h-11.707045z" fill="#509fd7" data-original="#509fd7"></path><path d="m61.526131 57.517662h3.459428v1.798488h-3.459428z" fill="#509fd7" data-original="#509fd7"></path><path d="m52.533684 57.517662h7.970146v1.798488h-7.970146z" fill="#467080" data-original="#467080"></path><path d="m66.012444 57.517632h2.423748v1.798488h-2.423748z" fill="#467080" data-original="#467080"></path><g fill="#db584d"><path d="m52.533684 62.86507h7.807119v1.798488h-7.807119z" fill="#db584d" data-original="#db584d"></path><path d="m61.146248 62.865044h7.289945v1.798488h-7.289945z" fill="#db584d" data-original="#db584d"></path><path d="m35.576378 68.031975h4.914386v1.798488h-4.914386z" fill="#db584d" data-original="#db584d"></path></g><path d="m41.354038 68.031952h6.960461v1.798488h-6.960461z" fill="#467080" data-original="#467080"></path><path d="m49.369293 68.031975h6.496581v1.798488h-6.496581z" fill="#db584d" data-original="#db584d"></path><path d="m56.729149 68.031952h11.707045v1.798488h-11.707045z" fill="#d6b251" data-original="#d6b251"></path><path d="m115.6459198 92.5509262v-6.1519241h-3.9548187c-.2358246-1.6291046-.6644897-3.19384-1.2540131-4.6837463l3.4189377-1.982605-3.0759659-5.3269043-3.4189377 1.9828644c-1.0181198-1.2753372-2.164917-2.4221954-3.4403229-3.4403229l1.9827423-3.418869-5.3266449-3.0760956-1.982811 3.418869c-1.489769-.5892563-3.0545044-1.0181198-4.6943359-1.2538834v-3.95475h-6.1411972v3.9547501c-1.6398315.2357635-3.204567.6646271-4.6943436 1.2538834l-1.9827347-3.418869-5.3267136 3.0760956 1.9828033 3.418869c-1.2753983 1.0181274-2.4221954 2.1649857-3.4296646 3.4403229l-3.429657-1.9828644-3.0759659 5.3269043 3.4189377 1.982605c-.5894623 1.4899063-1.0181961 3.0546417-1.253952 4.6837463h-3.9548187v6.1519241h3.9548187c.2357559 1.6398315.6644897 3.204567 1.253952 4.6942062l-3.4189377 1.982872 3.0759659 5.3266449 3.429657-1.982605c1.0074692 1.2753372 2.1542664 2.421936 3.4296646 3.4295959l-1.9828033 3.4295959 5.3267136 3.0758362 1.9827347-3.418869c1.4897766.5895233 3.054512 1.0181198 4.6943436 1.2541428v3.9547501h6.1411972v-3.9547501c1.6398315-.2360229 3.204567-.6646194 4.6943359-1.2541428l1.982811 3.418869 5.3266449-3.0758362-1.9827423-3.4295959c1.2754059-1.0076599 2.4222031-2.1542587 3.4403229-3.4295959l3.4189377 1.982605 3.0759659-5.3266449-3.4189377-1.982872c.5895233-1.4896393 1.0181885-3.0543747 1.2540131-4.6942062h3.9548187zm-20.5028839 6.6341705c-9.088623 3.6334305-17.6520233-4.9302292-14.0187149-14.0187836.9752731-2.4543839 2.9473495-4.415535 5.3910141-5.3907547 9.0885468-3.6441574 17.662674 4.9299698 14.0186462 14.0185242-.9752807 2.443657-2.9366302 4.415802-5.3909454 5.3910141z" fill="#cd5148" data-original="#cd5148" class=""></path><path d="m90.8345108 71.8336105c-9.7316513 0-17.651947 7.9097672-17.651947 17.6412201 0 9.73172 7.9202957 17.6522141 17.651947 17.6522141s17.6412964-7.9204941 17.6412964-17.6522141c0-9.7314529-7.9096375-17.6412201-17.6412964-17.6412201zm0 31.927948c-7.877449 0-14.2866516-6.4091415-14.2866516-14.2867279 0-7.8665924 6.4092026-14.2757263 14.2866516-14.2757263 7.8667908 0 14.2759323 6.4091339 14.2759323 14.2757263 0 7.8775864-6.4091415 14.2867279-14.2759323 14.2867279z" fill="#e7a04e" data-original="#e7a04e"></path></g></svg>