<svg xmlns="http://www.w3.org/2000/svg" version="1.1" xmlns:xlink="http://www.w3.org/1999/xlink" xmlns:svgjs="http://svgjs.com/svgjs" width="51"  x="0" y="0" viewBox="0 0 512 512" style="enable-background:new 0 0 512 512" xml:space="preserve" class=""><g>
<g>
	<g>
		<path d="M334.13,255.422c-8.349,0-15.118-6.769-15.118-15.118v-61.192c0-9.387,7.638-17.026,17.025-17.026h52.433v-43.033h-52.433
			c-33.116,0-60.059,26.942-60.059,60.058v61.192c0,8.349-6.769,15.118-15.118,15.118H206.52v43.033h54.341
			c8.349,0,15.118,6.769,15.118,15.118V512h43.034V313.572c0-8.349,6.769-15.118,15.118-15.118h54.341v-43.033H334.13z" fill="#161616" data-original="#000000" class=""></path>
	</g>
</g>
<g>
	<g>
		<path d="M449.643,0H62.358C27.974,0,0.001,27.973,0.001,62.357v387.285C0.001,484.027,27.974,512,62.358,512h183.385V328.69
			h-54.341c-8.349,0-15.118-6.769-15.118-15.118v-73.268c0-8.349,6.769-15.118,15.118-15.118h54.341v-46.074
			c0-49.788,40.506-90.294,90.294-90.294h67.551c8.349,0,15.118,6.769,15.118,15.118v73.268c0,8.349-6.769,15.118-15.118,15.118
			h-54.341v32.864h54.341c8.349,0,15.118,6.769,15.118,15.118v73.268c0,8.349-6.769,15.118-15.118,15.118h-54.341V512h100.395
			c34.384,0,62.357-27.973,62.357-62.357V62.357C512,27.973,484.027,0,449.643,0z" fill="#161616" data-original="#000000" class=""></path>
	</g>
</g>
<g>
</g>
<g>
</g>
<g>
</g>
<g>
</g>
<g>
</g>
<g>
</g>
<g>
</g>
<g>
</g>
<g>
</g>
<g>
</g>
<g>
</g>
<g>
</g>
<g>
</g>
<g>
</g>
<g>
</g>
</g></svg>