<svg xmlns="http://www.w3.org/2000/svg" version="1.1" xmlns:xlink="http://www.w3.org/1999/xlink" xmlns:svgjs="http://svgjs.com/svgjs" width="90" x="0" y="0" viewBox="0 0 512 512" style="enable-background:new 0 0 512 512" xml:space="preserve" class=""><g><g><g><g><g><g><g><g><circle cx="256" cy="256" fill="#a3d4ff" r="256" data-original="#a3d4ff" class=""></circle></g></g></g></g></g></g><g fill="#65b1fc"><path d="m512 256c0-4.22-.102-8.417-.304-12.587l-86.644-86.644-126.187 59.418-48.467 86.791-43.087-30.211-63.21-.951-23.818-21.816-25.149 24.077 228.909 228.781c108.358-29.8 187.957-129.033 187.957-246.858z" fill="#65b1fc" data-original="#65b1fc" class=""></path><path d="m58.374 309.634 202.415 202.322c15.178-.279 30.034-1.878 44.456-4.688l-222.417-222.418z" fill="#65b1fc" data-original="#65b1fc" class=""></path></g><g><path d="m267.814 388.653h-30v-25.23c0-49.988-40.668-90.656-95.868-90.656v-30c41.917 0 74.847 16.476 96.995 42.419 8.079-58.742 58.603-104.138 119.53-104.138h32.224v30h-32.225c-49.988 0-90.656 40.668-90.656 90.656z" fill="#ffffff" data-original="#ffffff" class=""></path></g><g><path d="m358.47 181.047c-43.433 0-81.574 23.074-102.826 57.603v150.003h12.17v-86.949c0-49.988 40.668-90.656 90.656-90.656h32.224v-30h-32.224z" fill="#e9edf5" data-original="#e9edf5" class=""></path></g><g><circle cx="386.788" cy="190.984" fill="#4253ce" r="51.338" data-original="#4253ce"></circle></g><g><circle cx="107.472" cy="261.789" fill="#ffffff" r="17.413" data-original="#ffffff" class=""></circle></g><g><circle cx="70.779" cy="297.414" fill="#ffffff" r="17.413" data-original="#ffffff" class=""></circle></g></g></g></svg>