<svg xmlns="http://www.w3.org/2000/svg" version="1.1" xmlns:xlink="http://www.w3.org/1999/xlink" xmlns:svgjs="http://svgjs.com/svgjs" width="51"  x="0" y="0" viewBox="0 0 512.6 512.6" style="enable-background:new 0 0 512 512" xml:space="preserve" class=""><g>
<g>
	<path d="M457.21,0H55.39C24.8,0,0,24.8,0,55.39v401.82c0,30.59,24.8,55.39,55.39,55.39h401.82c30.59,0,55.39-24.8,55.39-55.39   V55.39C512.6,24.8,487.8,0,457.21,0z M254.44,452c-20.31,0-39.65-3.06-58.03-8.71c8.06-13.05,19.99-34.33,24.34-51.41   c2.42-9.19,12.25-46.59,12.25-46.59c6.29,12.25,24.98,22.57,44.81,22.57c58.99,0,101.55-54.32,101.55-121.86   c0-64.79-52.87-113.15-120.73-113.15c-84.62,0-129.43,56.74-129.43,118.47c0,28.86,15.31,64.48,39.81,75.92   c3.71,1.77,5.8,0.97,6.61-2.58c0.64-2.74,4.03-16.12,5.48-22.24c0.48-1.94,0.32-3.71-1.29-5.64c-8.06-9.83-14.51-27.89-14.51-44.65   c0-43.2,32.72-84.94,88.49-84.94c48.2,0,81.88,32.72,81.88,79.62c0,52.87-26.75,89.62-61.57,89.62   c-19.18,0-33.69-15.96-29.01-35.46c5.64-23.37,16.28-48.52,16.28-65.28c0-14.99-8.06-27.56-24.82-27.56   c-19.67,0-35.46,20.31-35.46,47.55c0,17.24,5.8,29.01,5.8,29.01s-19.34,82.04-22.89,97.35c-3.87,16.93-2.42,40.78-0.64,56.26   C110.5,409.77,58.92,338.85,58.92,255.84C58.92,147.68,146.61,60,254.76,60c108.15,0,195.84,87.68,195.52,196.16   C450.28,364.31,362.59,452,254.44,452z" fill="#161616" data-original="#000000" class=""></path>
</g>















</g></svg>